<?xml version="1.0" encoding="utf-8"?>
<!-- Generator: Adobe Illustrator 27.5.0, SVG Export Plug-In . SVG Version: 6.00 Build 0)  -->
<svg version="1.1" xmlns="http://www.w3.org/2000/svg" xmlns:xlink="http://www.w3.org/1999/xlink" x="0px" y="0px"
	 viewBox="0 0 2200 2200" style="enable-background:new 0 0 2200 2200;" xml:space="preserve">
<g id="background">
	<rect style="fill:#FFFFFF;" width="2200" height="2200"/>
</g>
<g id="Objects">
	<g>
		<path d="M1819.102,974.986C1821.137,973.545,1822.325,972.448,1819.102,974.986L1819.102,974.986z"/>
		<path d="M520.404,791.227c23.423,0,46.846,0,70.269,0c6.398,0,11.314-6.172,13.376-11.705c1.371-3.678,2.506-13.32-3.966-13.32
			c-23.423,0-46.846,0-70.269,0c-6.398,0-11.314,6.172-13.376,11.705C515.067,781.585,513.932,791.227,520.404,791.227z"/>
		<path d="M660.064,672.648c21.374,0,42.747,0,64.121,0c6.398,0,11.314-6.172,13.376-11.705c1.371-3.678,2.506-13.32-3.966-13.32
			c-21.374,0-42.747,0-64.121,0c-6.398,0-11.314,6.172-13.376,11.705C654.727,663.005,653.593,672.648,660.064,672.648z"/>
		<path d="M831.785,798.84c21.374,0,42.747,0,64.121,0c6.398,0,11.314-6.172,13.376-11.705c1.371-3.678,2.506-13.32-3.966-13.32
			c-21.374,0-42.747,0-64.121,0c-6.398,0-11.314,6.172-13.376,11.705C826.448,789.198,825.313,798.84,831.785,798.84z"/>
		<path d="M1061.917,698.706c21.374,0,42.747,0,64.121,0c6.398,0,11.314-6.172,13.376-11.705c1.371-3.678,2.506-13.32-3.966-13.32
			c-21.374,0-42.747,0-64.121,0c-6.398,0-11.314,6.172-13.376,11.705C1056.58,689.064,1055.445,698.706,1061.917,698.706z"/>
		<path d="M1397.453,688.166c21.374,0,42.747,0,64.121,0c6.398,0,11.314-6.172,13.376-11.705c1.371-3.678,2.506-13.32-3.966-13.32
			c-21.374,0-42.747,0-64.121,0c-6.398,0-11.314,6.172-13.376,11.705C1392.116,678.523,1390.981,688.166,1397.453,688.166z"/>
		<path d="M1597.721,791.227c21.374,0,42.747,0,64.121,0c6.398,0,11.314-6.172,13.376-11.705c1.371-3.678,2.506-13.32-3.966-13.32
			c-21.374,0-42.747,0-64.121,0c-6.398,0-11.314,6.172-13.376,11.705C1592.384,781.585,1591.249,791.227,1597.721,791.227z"/>
		<path d="M1054.89,907.757c21.374,0,42.747,0,64.121,0c6.398,0,11.314-6.172,13.376-11.705c1.371-3.678,2.506-13.32-3.966-13.32
			c-21.374,0-42.747,0-64.121,0c-6.398,0-11.314,6.172-13.376,11.705C1049.553,898.115,1048.418,907.757,1054.89,907.757z"/>
		<path d="M1342.994,842.758c21.374,0,42.747,0,64.121,0c6.398,0,11.314-6.172,13.376-11.705c1.371-3.678,2.506-13.32-3.966-13.32
			c-21.374,0-42.747,0-64.121,0c-6.398,0-11.314,6.172-13.376,11.705C1337.657,833.116,1336.522,842.758,1342.994,842.758z"/>
		<path d="M863.845,593.302c21.374,0,42.747,0,64.121,0c6.398,0,11.314-6.172,13.376-11.705c1.371-3.678,2.506-13.32-3.966-13.32
			c-21.374,0-42.747,0-64.121,0c-6.398,0-11.314,6.172-13.376,11.705C858.508,583.66,857.374,593.302,863.845,593.302z"/>
		<path d="M1194.111,561.681c21.374,0,42.747,0,64.121,0c6.398,0,11.314-6.172,13.376-11.705c1.371-3.678,2.506-13.32-3.966-13.32
			c-21.374,0-42.747,0-64.121,0c-6.398,0-11.314,6.172-13.376,11.705C1188.774,552.039,1187.639,561.681,1194.111,561.681z"/>
		<path d="M701.773,931.328c-1.371,3.678-2.506,13.32,3.966,13.32c21.374,0,42.747,0,64.121,0c6.398,0,11.314-6.172,13.376-11.705
			c1.371-3.678,2.506-13.32-3.966-13.32c-21.374,0-42.747,0-64.121,0C708.752,919.624,703.836,925.796,701.773,931.328z"/>
		<path d="M1951.609,1235.28c-21.557-28.564-46.27-54.536-73.57-77.611c15.623-20.664,26.571-45.074,29.398-70.884
			c3.625-33.102-5.49-66.222-25.574-92.856c-5.999-7.955-12.953-15.239-20.577-21.712c49.939-59.821,41.911-153.209,21.075-223.811
			c-24.588-83.312-73.595-158.426-136.059-218.32c-68.116-65.314-151.026-111.977-240.299-141.815
			c-88.887-29.709-182.84-44.419-276.438-46.797c-59.693-1.516-119.487-1.071-179.192-0.763
			c-73.009,0.377-145.547,3.213-217.695,15.672c-96.97,16.745-192.427,48.922-276.048,101.45
			c-75.95,47.709-141.406,112.413-187.873,189.289c-23.302,38.551-41.235,80.105-53.214,123.517
			c-11.327,41.051-17.85,84.958-12.232,127.449c3.517,26.6,11.737,51.916,26.817,73.038c-14.574,26.533-26.46,56.43-28.601,86.271
			c-2.043,28.485,4.629,59.759,20.247,83.858c3.503,5.405,7.531,10.415,11.948,15.061c-29.989,24.535-56.979,52.716-80.321,83.648
			c-4.209,5.578-13.84,27.528,0.479,28.498c29.069,1.97,58.104,4.464,87.086,7.48c-17.167,49.359-12.885,106.106,12.344,151.853
			c0.672,1.218,1.367,2.422,2.07,3.622c-26.795,40.927-38.72,91.395-36.395,139.995c2.915,60.95,28.28,119.884,72.485,162.258
			c49.239,47.2,115.558,72.255,180.584,89.047c74.575,19.258,151.819,27.093,228.541,31.487
			c89.224,5.111,178.668,5.188,268.009,5.218c90.514,0.03,181.094,0.483,271.557-3.042c79.647-3.103,159.79-8.967,238.022-24.882
			c67.148-13.66,136.368-35.01,192.732-75.155c52.657-37.505,89.733-95.656,101.063-159.349
			c8.962-50.381,2.851-106.935-26.233-150.178c-3.541-5.265-7.478-10.143-11.734-14.744c27.474-41.554,37.765-92.264,29.506-141.885
			c-0.888-5.338-1.997-10.582-3.345-15.741c10.396-1.019,20.797-1.991,31.204-2.87c13.682-1.155,27.375-2.185,41.074-3.114
			C1944.833,1267.625,1960.57,1247.154,1951.609,1235.28z M337.465,787.796c17.322-81.154,59.631-152.619,116.393-212.752
			c60.602-64.201,138.53-111.683,221.14-142.643c90.409-33.883,186.896-50.128,283.14-54.151
			c56.216-2.35,112.688-1.437,168.937-1.275c66.594,0.192,132.811,0.904,198.978,9.688c95.463,12.674,189.548,39.154,274.317,85.525
			c76.044,41.598,142.753,99.289,192.032,170.835c23.659,34.349,43.047,71.528,56.611,111c13.316,38.751,22.253,80.141,20.91,121.29
			c-0.585,17.905-3.568,35.87-9.567,51.572c-2.795,7.317-6.005,13.818-10.279,19.948c-3.471,4.979-7.806,9.699-13.008,14.252
			c-2.473,1.197-4.88,3.205-7.015,5.685c-2.731,2.117-5.457,4.241-8.241,6.289c-1.059,0.779-2.177,1.5-3.207,2.316
			c0.181-0.143,0.335-0.265,0.494-0.39c-0.255,0.18-0.52,0.365-0.794,0.549c-2.707,1.822-5.461,3.575-8.254,5.261
			c-7.059,4.261-14.373,8.091-21.838,11.589c-4.378,2.052-8.828,3.921-13.273,5.817c-0.443,0.177-0.885,0.354-1.328,0.528
			c-1.307,0.515-2.618,1.022-3.931,1.523c-2.87,1.094-5.754,2.152-8.648,3.18c-30.85,10.954-62.841,18.613-94.927,24.927
			c-50.853,10.006-102.38,16.495-153.945,21.483c-75.939,7.347-152.229,11.111-228.473,13.353
			c-101.555,2.986-203.236,3.248-304.812,1.206c-81.73-1.644-163.483-4.933-244.965-11.659
			c-55.729-4.6-111.429-10.725-166.53-20.371c-19.685-3.446-39.296-7.362-58.736-12.002c-8.114-1.937-16.199-4.001-24.239-6.225
			c-3.726-1.031-7.443-2.095-11.148-3.198c-1.7-0.506-3.395-1.027-5.092-1.542c-0.101-0.031-0.178-0.054-0.259-0.079
			c-0.767-0.243-1.535-0.485-2.301-0.732c-20.182-6.478-40.125-14.172-58.718-24.423c-10.437-5.754-20.187-12.46-29.596-19.754
			C323.504,922.72,324.498,848.546,337.465,787.796z M329.941,1046.905c0.126-10.425,4.129-24.211,8.381-35.672
			c2.663-7.178,5.615-14.081,8.886-20.835c2.322,2.118,4.737,4.173,7.271,6.145c3.701,2.88,7.397,5.769,11.196,8.521
			c12.277,8.894,25.552,16.255,39.354,22.5c25.174,11.391,51.845,19.528,78.575,26.352c42.615,10.879,86.135,18.124,129.706,23.897
			c67.07,8.887,134.613,14.085,202.158,17.649c96.577,5.096,193.33,6.678,290.031,6.512c94.742-0.163,189.531-2.071,284.126-7.549
			c66.14-3.83,132.293-9.281,197.929-18.425c42.155-5.873,84.255-13.206,125.416-24.159c25.968-6.911,51.685-15.363,76.04-26.804
			c14.417-6.773,27.907-14.959,40.726-24.401c0.672-0.495,1.328-1.009,1.994-1.512c22.82,16.505,39.782,40.734,45.936,68.421
			c2.913,13.106,2.647,26.295-0.268,39.317c-2.324,10.381-8.476,22.984-14.227,30.668c-15.302,20.449-38.019,35.668-64.687,40.281
			c-33.186,5.74-67.418-5.819-99.088-14.374c-33.633-9.085-67.108-15.131-101.628-6.953c-33.199,7.866-63.03,25.201-95.142,36.185
			c-32.721,11.193-65.425,11.521-99.197,5.068c-35.365-6.757-69.373-18.968-104.319-27.435
			c-33.712-8.168-67.138-10.889-101.676-7.561c-32.99,3.179-65.263,11.173-97.079,20.194
			c-62.435,17.702-126.006,41.642-191.875,39.425c-32.941-1.109-63.897-9.904-93.999-22.922
			c-29.788-12.883-58.297-28.539-88.225-41.111c-29.46-12.375-60.829-21.98-93.061-21.753
			c-35.017,0.247-68.808,10.058-102.466,18.604c-31.293,7.946-63.699,15.269-96.004,9.166
			c-20.848-3.938-42.334-12.958-59.977-24.714c-18.043-12.022-31.77-29.253-38.558-49.937
			C331.657,1075.893,329.766,1061.411,329.941,1046.905z M1844.912,1540.232c0.189,1.148,0.362,2.299,0.53,3.45
			c0.051,0.491,0.336,2.743,0.347,2.836c0.335,2.958,0.605,5.924,0.812,8.894c0.458,6.553,0.608,13.127,0.459,19.694
			c-0.555,24.548-5.628,48.021-15.724,71.737c-0.655,1.539-1.354,3.058-2.018,4.593c-0.128,0.295-0.232,0.539-0.32,0.748
			c-0.084,0.163-0.174,0.341-0.28,0.551c-1.532,3.032-3.064,6.059-4.703,9.035c-3.062,5.561-6.375,10.99-9.92,16.257
			c-0.375,0.51-1.759,2.479-1.982,2.784c-1.046,1.431-2.109,2.849-3.189,4.254c-2.184,2.841-4.438,5.629-6.758,8.36
			c-2.359,2.777-4.818,5.454-7.271,8.147c-0.364,0.4-0.639,0.704-0.846,0.937c-0.222,0.214-0.507,0.491-0.878,0.856
			c-1.776,1.747-3.552,3.49-5.371,5.192c-45.527,42.593-109.682,64.872-170.28,79.88c-71.719,17.762-145.706,25.309-219.331,29.486
			c-86.108,4.885-172.421,5.094-258.641,5.144c-87.382,0.051-174.817,0.482-262.164-2.407
			c-77.279-2.556-154.877-7.535-231.083-21.187c-64.206-11.502-129.01-29.274-185.596-62.627
			c-51.753-30.505-90.885-78.712-106.211-137.007c-3.598-13.685-5.487-24.92-6.466-37.928c-0.479-6.364-0.699-12.747-0.657-19.129
			c0.021-3.153,0.105-6.306,0.254-9.456c0.074-1.565,0.163-3.13,0.269-4.693c0.065-0.961,0.137-1.921,0.214-2.881
			c0.014-0.146,0.028-0.29,0.045-0.467c0.632-6.121,1.489-12.216,2.607-18.267c0.551-2.981,1.163-5.951,1.836-8.907
			c0.334-1.467,0.683-2.93,1.048-4.389c0.151-0.603,1.055-3.91,1.112-4.201c1.505-5.068,3.186-10.084,5.078-15.021
			c1.033-2.696,2.125-5.369,3.277-8.016c0.571-1.312,1.177-2.606,1.756-3.914c-2.385,5.387,0.289-0.538,0.825-1.589
			c1.419-2.783,2.919-5.525,4.484-8.229c10.41,12.811,22.648,24.166,36.126,33.616c23.827,16.706,52.27,26.091,79.42,35.907
			c122.567,44.314,251.451,68.404,381.025,79.97c135.752,12.118,273.357,12.75,409.296,3.25
			c130.548-9.124,260.909-29.37,385.6-69.958c30.167-9.82,60.207-20.571,89.37-33.087c21.926-9.41,41.705-23.433,58.496-40.35
			c0.99,1.076,1.967,2.164,2.916,3.276c3.525,4.13,6.763,8.502,9.728,13.049c2.837,4.35,5.421,8.863,7.771,13.493
			c2.008,3.957,3.889,8.265,6.047,14.12C1840.052,1517.108,1842.994,1528.592,1844.912,1540.232z M1837.427,1355.042
			c-1.388,12.523-3.855,22.9-7.767,33.538c-4.22,11.477-7.851,18.68-15.353,29.971c-0.243,0.366-0.393,0.599-0.48,0.742
			c-0.202,0.267-0.439,0.581-0.726,0.965c-0.845,1.127-1.673,2.265-2.531,3.383c-1.716,2.237-3.491,4.43-5.318,6.577
			c-4.418,5.192-6.263,7.131-11.325,11.742c-9.236,8.412-18.682,15.139-29.633,21.053c-24.972,13.486-53.164,22.339-79.949,31.472
			c-117.171,39.95-240.07,61.815-363.23,72.232c-129.944,10.991-261.448,11.594-391.554,2.983
			c-124.83-8.262-249.516-26.91-369.342-63.571c-28.649-8.765-56.961-18.698-84.841-29.666
			c-24.277-9.55-47.471-20.396-66.615-38.586c-35.667-33.89-54.804-83.598-48.204-132.599c1.187-8.809,2.739-17.948,5.374-26.593
			c74.684,8.571,148.958,20.692,222.414,36.707c113.066,24.65,224.201,58.515,330.835,103.605
			c53.255,22.519,105.349,47.819,155.76,76.148c5.684,3.195,13.758,10.266,20.605,8.651c6.888-1.624,13.994-7.416,20.138-10.852
			c12.746-7.127,25.6-14.06,38.554-20.802c25.514-13.28,51.412-25.822,77.628-37.657c105.021-47.415,215.169-83.209,327.191-109.916
			c87.853-20.945,177.087-36.368,266.862-46.519C1836.647,1301.211,1840.153,1330.456,1837.427,1355.042z M1844.598,1241.07
			c-1.418-0.26-2.986-0.039-4.577,0.489c-77.346,8.571-154.271,20.865-230.35,37.308c-114.13,24.666-226.193,58.726-334.021,103.626
			c-58.686,24.437-115.933,52.277-171.18,83.732c-99.455-56.779-205.331-101.769-314.33-136.712
			c-109.494-35.101-221.92-60.546-335.641-77.376c-28.459-4.212-56.995-7.876-85.588-11.025c-0.798-0.209-1.609-0.294-2.425-0.265
			c-25.459-2.777-50.962-5.146-76.498-7.11c19.479-22.058,41.035-42.083,64.524-59.993c5.895,3.955,12.094,7.454,18.454,10.498
			c25.281,12.099,52.7,19.786,80.884,18.632c35.547-1.455,69.549-12.234,103.871-20.565c33.748-8.191,66.982-12.549,101.317-5.137
			c66.567,14.369,122.282,58.562,188.354,75.026c139.446,34.748,267.585-73.181,406.946-51.812
			c72.257,11.079,141.749,49.748,216.467,34.93c34.859-6.914,65.926-25.127,99.177-36.818c16.503-5.802,33.625-10.056,51.212-9.899
			c17.865,0.159,35.487,3.73,52.743,8.092c34.469,8.713,69.013,21.224,105.118,18.346c26.374-2.103,51.222-12.661,71.732-29.064
			c18.553,15.123,35.78,31.673,51.668,49.482C1883.147,1237.095,1863.86,1238.972,1844.598,1241.07z"/>
	</g>
</g>
</svg>
